<?xml version="1.0" encoding="UTF-8" standalone="no"?>
<!-- Created with Inkscape (http://www.inkscape.org/) -->

<svg
   width="992.09125"
   height="980.25073"
   viewBox="0 0 262.49081 259.358"
   version="1.1"
   id="svg1"
   inkscape:version="1.3 (0e150ed, 2023-07-21)"
   sodipodi:docname="logo-astice-cerchio.svg"
   xml:space="preserve"
   inkscape:export-filename="logo-astice-fronte-cerchio.png"
   inkscape:export-xdpi="300"
   inkscape:export-ydpi="300"
   xmlns:inkscape="http://www.inkscape.org/namespaces/inkscape"
   xmlns:sodipodi="http://sodipodi.sourceforge.net/DTD/sodipodi-0.dtd"
   xmlns="http://www.w3.org/2000/svg"
   xmlns:svg="http://www.w3.org/2000/svg"><sodipodi:namedview
     id="namedview1"
     pagecolor="#ffffff"
     bordercolor="#666666"
     borderopacity="1.0"
     inkscape:showpageshadow="2"
     inkscape:pageopacity="0.0"
     inkscape:pagecheckerboard="0"
     inkscape:deskcolor="#d1d1d1"
     inkscape:document-units="mm"
     inkscape:zoom="0.66142065"
     inkscape:cx="476.2476"
     inkscape:cy="529.91995"
     inkscape:window-width="1360"
     inkscape:window-height="936"
     inkscape:window-x="1454"
     inkscape:window-y="25"
     inkscape:window-maximized="0"
     inkscape:current-layer="layer1"
     showguides="true"><sodipodi:guide
       position="131.64164,143.35196"
       orientation="1,0"
       id="guide36"
       inkscape:locked="false" /></sodipodi:namedview><defs
     id="defs1" /><g
     inkscape:label="Livello 1"
     inkscape:groupmode="layer"
     id="layer1"
     transform="translate(-1.0462711,-2.6126697)"><ellipse
       style="fill:#ffffff;fill-opacity:1;fill-rule:evenodd;stroke:#5ba9bb;stroke-width:6.37517;stroke-dasharray:none;stroke-opacity:1"
       id="path15"
       cx="132.29167"
       cy="132.29167"
       rx="128.05782"
       ry="126.49142" /><path
       style="fill:#5ba9bb;fill-opacity:1;stroke:#417c9b;stroke-width:0.264583px;stroke-linecap:butt;stroke-linejoin:miter;stroke-opacity:1"
       d="m 137.29681,99.391449 c 14.43273,-24.195858 84.57089,-23.243434 58.14957,118.184301 -0.83856,4.48864 2.26693,4.75641 3.27229,0 C 227.19542,82.851457 157.37932,69.615763 134.97894,93.80129 c -1.61404,1.742666 -0.10385,-6.73191 -2.47859,-6.680917 -2.33964,0.05024 -0.73008,8.518467 -2.15716,6.680917 -16.36995,-21.078448 -92.436858,-18.01114 -65.760102,123.35142 0.988398,5.23761 4.333261,5.26815 3.272288,-0.13635 C 40.875466,79.583241 113.89982,73.463256 127.61629,99.391449 c -1.14409,0.644581 -7.04718,4.146071 -10.43909,14.670501 -3.45471,10.71928 -5.8235,25.57328 3.59247,37.92895 3.04495,3.9956 20.43103,4.17877 23.42419,0 9.15007,-12.77447 7.25367,-27.45343 3.99633,-37.7738 -3.25735,-10.32038 -9.46176,-13.79922 -10.89338,-14.825651 z"
       id="path1"
       sodipodi:nodetypes="csssassscssssc" /><path
       style="fill:#417c9b;fill-opacity:1;stroke:#417c9b;stroke-width:0.264583px;stroke-linecap:butt;stroke-linejoin:miter;stroke-opacity:1"
       d="m 155.06005,137.11022 c 1.34963,-1.45659 11.00103,1.16523 14.94261,-1.94843 6.7732,-5.35049 8.55585,-14.26461 9.0063,-15.55956 0.91191,-2.62153 3.68514,-2.07825 3.55722,0.31229 -0.36697,6.85779 -4.76842,15.05437 -10.50044,19.88403 -2.45784,2.0709 -6.73377,1.40698 -16.74491,1.57531 -0.70904,0.0119 -1.16669,-3.28593 -0.26083,-4.26364 z"
       id="path4"
       sodipodi:nodetypes="sssssss" /><path
       style="fill:#5ba9bb;fill-opacity:1;stroke:#417c9b;stroke-width:0.235944px;stroke-linecap:butt;stroke-linejoin:miter;stroke-opacity:1"
       d="m 155.45982,126.85207 c 0.92444,-1.45177 9.59814,0.0641 12.47837,-3.13525 4.94938,-5.4977 5.06445,-13.79403 5.24502,-15.01661 0.36557,-2.47505 2.82463,-2.23118 3.0934,-0.0381 0.77098,6.29128 -1.69854,14.17069 -5.83938,19.09853 -1.77557,2.11301 -5.5396,1.89556 -14.07966,2.95846 -0.60488,0.0751 -1.51826,-2.89254 -0.89775,-3.867 z"
       id="path6"
       sodipodi:nodetypes="sssssss" /><path
       style="fill:#417c9b;fill-opacity:1;stroke:#417c9b;stroke-width:0.241609px;stroke-linecap:butt;stroke-linejoin:miter;stroke-opacity:1"
       d="m 144.8909,153.50661 c 0,0 -0.14167,6.9486 -0.52917,8.30611 -1.12611,3.94507 -8.5041,4.99135 -11.88939,4.96801 -3.21397,-0.0222 -10.44343,-0.93449 -12.01952,-4.86545 -0.25315,-0.63138 -0.52917,-8.40867 -0.52917,-8.40867 2.86126,3.78789 7.78137,4.92228 12.54869,4.97663 4.76733,0.0543 9.15511,-1.28249 12.41856,-4.97663 z"
       id="path9"
       sodipodi:nodetypes="sssssss" /><path
       style="fill:#5ba9bb;fill-opacity:1;stroke:#417c9b;stroke-width:0.316809px;stroke-linecap:butt;stroke-linejoin:miter;stroke-opacity:1"
       d="m 160.656,24.524856 c -13.08641,0.04237 -19.16783,63.031438 0.18565,53.871531 20.02225,-9.476423 23.27893,-45.648804 2.85609,-54.545523 -2.24558,-0.978234 8.06129,7.733078 -5.71271,37.109687 -1.70625,3.639023 -1.01939,-25.694074 2.67097,-36.435695 z"
       id="path10"
       sodipodi:nodetypes="csssc" /><path
       style="fill:#5ba9bb;fill-opacity:1;stroke:#5ba9bb;stroke-width:0.373341px;stroke-linecap:butt;stroke-linejoin:miter;stroke-opacity:1"
       d="m 120.44543,167.02306 c 8.65498,2.4425 14.03807,2.56275 23.60558,0 -3.24075,7.53939 0,9.40419 -3.57189,10.1229 -5.92146,1.19147 -11.23457,1.0589 -16.01807,0 -3.65367,-0.8088 -0.20398,-2.98621 -4.01562,-10.1229 z"
       id="path12"
       sodipodi:nodetypes="ccssc" /><path
       style="fill:#5ba9bb;fill-opacity:1;stroke:#5ba9bb;stroke-width:0.277676px;stroke-linecap:butt;stroke-linejoin:miter;stroke-opacity:1"
       d="m 141.55113,191.04876 c 0.6636,-0.1911 0.90294,1.05191 0.72922,1.60396 -3.37993,10.74135 -0.49196,17.79162 -3.84748,20.26131 -0.57595,0.42391 -10.32584,0.42111 -10.90498,0 -3.59027,-2.61054 -0.78056,-9.22652 -4.78535,-20.13838 -0.19176,-0.52249 -0.19264,-1.89433 0.38006,-1.72689 3.09265,0.90419 14.94139,1.00423 18.42853,0 z"
       id="path14"
       sodipodi:nodetypes="sssssss" /><path
       style="fill:#417c9b;fill-opacity:1;stroke:#417c9b;stroke-width:0.217321px;stroke-linecap:butt;stroke-linejoin:miter;stroke-opacity:1"
       d="m 152.80733,116.00875 c 0.5648,-1.48123 8.67141,-1.72214 10.67668,-5.14273 3.44583,-5.87794 2.01111,-13.384333 1.94729,-14.52084 -0.12913,-2.300814 2.13464,-2.536812 2.78382,-0.608066 1.86233,5.533066 1.09553,13.099946 -1.72654,18.313806 -1.21008,2.23565 -4.64635,2.7375 -12.15417,5.28021 -0.53174,0.18009 -1.9062,-2.32813 -1.52708,-3.32238 z"
       id="path19"
       sodipodi:nodetypes="sssssss" /><path
       style="fill:#417c9b;fill-opacity:1;stroke:#417c9b;stroke-width:0.264583px;stroke-linecap:butt;stroke-linejoin:miter;stroke-opacity:1"
       d="m 111.03944,137.11022 c -1.34963,-1.45659 -11.00103,1.16523 -14.942611,-1.94843 -6.7732,-5.35049 -8.55585,-14.26461 -9.006303,-15.55956 -0.91191,-2.62153 -3.68514,-2.07825 -3.55722,0.31229 0.36697,6.85779 4.768423,15.05437 10.500443,19.88403 2.45784,2.0709 6.733771,1.40698 16.744911,1.57531 0.70904,0.0119 1.16669,-3.28593 0.26083,-4.26364 z"
       id="path21"
       sodipodi:nodetypes="sssssss" /><path
       style="fill:#5ba9bb;fill-opacity:1;stroke:#417c9b;stroke-width:0.235944px;stroke-linecap:butt;stroke-linejoin:miter;stroke-opacity:1"
       d="m 109.8805,126.85207 c -0.92444,-1.45177 -9.59816,0.0641 -12.47839,-3.13525 -4.949379,-5.4977 -5.064449,-13.79403 -5.245019,-15.01661 -0.36557,-2.47505 -2.82463,-2.23118 -3.0934,-0.0381 -0.77098,6.29128 1.69854,14.17069 5.839379,19.09853 1.77557,2.11301 5.53961,1.89556 14.07968,2.95846 0.60488,0.0751 1.51826,-2.89254 0.89775,-3.867 z"
       id="path22"
       sodipodi:nodetypes="sssssss" /><path
       style="fill:#417c9b;fill-opacity:1;stroke:#417c9b;stroke-width:0.217321px;stroke-linecap:butt;stroke-linejoin:miter;stroke-opacity:1"
       d="m 112.80927,116.00875 c -0.5648,-1.48123 -8.67142,-1.72214 -10.6767,-5.14273 -3.445843,-5.87794 -2.01112,-13.384327 -1.9473,-14.520839 0.12913,-2.300814 -2.134643,-2.536812 -2.783823,-0.608066 -1.862328,5.533075 -1.095528,13.099945 1.72654,18.313805 1.210083,2.23565 4.646373,2.7375 12.154193,5.28021 0.53174,0.18009 1.90621,-2.32813 1.52709,-3.32238 z"
       id="path23"
       sodipodi:nodetypes="sssssss" /><path
       style="fill:#5ba9bb;fill-opacity:1;stroke:#417c9b;stroke-width:0.316809px;stroke-linecap:butt;stroke-linejoin:miter;stroke-opacity:1"
       d="m 104.73599,24.944382 c 13.0828,0.310059 17.86139,63.046069 -1.30067,53.492188 -19.824215,-9.884013 -22.340277,-46.115443 -1.73972,-54.592534 2.26512,-0.932094 -8.217785,7.566559 4.9524,37.218781 1.63146,3.673164 1.55785,-25.303572 -1.91201,-36.118435 z"
       id="path24"
       sodipodi:nodetypes="csssc" /><path
       style="fill:#5ba9bb;fill-opacity:1;stroke:#417c9b;stroke-width:0.217321px;stroke-linecap:butt;stroke-linejoin:miter;stroke-opacity:1"
       d="m 154.98058,146.18723 c 1.43396,-0.67587 8.68567,1.07477 12.50228,0 6.55842,-1.8469 9.33248,-4.71542 10.22794,-5.41818 1.03409,-0.81156 3.26527,0.1373 2.42773,1.49184 -2.42773,3.92634 -6.45796,6.60345 -12.69856,8.3046 -2.78831,0.76008 -9.12023,0 -13.66233,-0.92528 -1.35546,-0.27612 0.24043,-2.99933 1.20294,-3.45298 z"
       id="path26"
       sodipodi:nodetypes="sssssss" /><path
       style="fill:#5ba9bb;fill-opacity:1;stroke:#417c9b;stroke-width:0.217321px;stroke-linecap:butt;stroke-linejoin:miter;stroke-opacity:1"
       d="m 111.00063,146.18723 c -1.43396,-0.67587 -8.68567,1.07477 -12.502283,0 -6.55842,-1.8469 -9.33248,-4.71542 -10.22794,-5.41818 -1.03409,-0.81156 -3.26527,0.1373 -2.42773,1.49184 2.42773,3.92634 6.45796,6.60345 12.69856,8.3046 2.788313,0.76008 9.120233,0 13.662333,-0.92528 1.35546,-0.27612 -0.24043,-2.99933 -1.20294,-3.45298 z"
       id="path27"
       sodipodi:nodetypes="sssssss" /><path
       style="fill:#417c9b;fill-opacity:1;stroke:#417c9b;stroke-width:0.39128px;stroke-linecap:butt;stroke-linejoin:miter;stroke-opacity:1"
       d="m 121.62481,178.26877 c 10.32573,2.26642 10.50662,2.27542 21.19343,0 -2.89154,7.13361 0.65277,9.26852 -3.93245,10.01132 -5.77398,0.93539 -7.84852,0.92097 -13.57759,0 -4.26736,-0.68599 -0.91846,-2.87092 -3.68339,-10.01132 z"
       id="path28"
       sodipodi:nodetypes="ccssc" /><path
       style="fill:#5ba9bb;fill-opacity:1;stroke:#5ba9bb;stroke-width:0.113046px;stroke-linecap:butt;stroke-linejoin:miter;stroke-opacity:1"
       d="m 137.07547,216.07916 c 2.87963,-2.28282 6.45048,-0.99542 7.66159,1.62983 1.23974,2.68731 -0.70773,7.36658 -3.22867,8.33319 -1.35597,0.51992 -2.70109,0.0101 -3.22558,-1.6873 -0.24902,-0.80593 -1.75598,-7.84079 -1.20734,-8.27572 z"
       id="path16"
       sodipodi:nodetypes="sasss" /><path
       style="fill:#417c9b;fill-opacity:1;stroke:#417c9b;stroke-width:0.122218px;stroke-linecap:butt;stroke-linejoin:miter;stroke-opacity:1"
       d="m 130.28873,216.32265 h 5.32701 c 0,0 1.59265,7.35495 0.86631,8.59761 -2.51003,4.2943 -4.96611,4.28561 -7.57053,-0.0472 -0.88686,-1.47542 1.37721,-8.55036 1.37721,-8.55036 z"
       id="path17"
       sodipodi:nodetypes="ccssc" /><path
       style="fill:#5ba9bb;fill-opacity:1;stroke:#5ba9bb;stroke-width:0.113046px;stroke-linecap:butt;stroke-linejoin:miter;stroke-opacity:1"
       d="m 128.75936,215.91892 c -2.87963,-2.28281 -6.45048,-0.99541 -7.66159,1.62984 -1.23974,2.68731 0.70773,7.36657 3.22868,8.33318 1.35596,0.51992 2.70109,0.0101 3.22555,-1.6873 0.24904,-0.80594 1.75598,-7.84079 1.20736,-8.27572 z"
       id="path18"
       sodipodi:nodetypes="sasss" /><path
       style="fill:#417c9b;fill-opacity:1;stroke:#417c9b;stroke-width:0.113046px;stroke-linecap:butt;stroke-linejoin:miter;stroke-opacity:1"
       d="m 142.69023,213.50331 c 0.0816,-1.48293 2.80826,-2.16787 4.26915,-2.1897 1.42007,-0.0212 2.95503,0.41064 4.02457,1.43882 2.18962,2.10495 2.14328,7.09981 0.14256,8.81768 -1.07615,0.924 -2.53468,0.8841 -3.67472,-0.5292 -0.54129,-0.67103 -2.15316,-4.83594 -4.23268,-6.86917 -0.31159,-0.30465 -0.54406,-0.3923 -0.52888,-0.66843 z"
       id="path34"
       sodipodi:nodetypes="sssssss" /><path
       style="fill:#417c9b;fill-opacity:1;stroke:#417c9b;stroke-width:0.113046px;stroke-linecap:butt;stroke-linejoin:miter;stroke-opacity:1"
       d="m 123.25107,213.69789 c -0.0263,-1.48494 -2.72563,-2.27088 -4.1847,-2.34706 -1.4183,-0.0741 -2.96827,0.30037 -4.07532,1.28804 -2.26644,2.02201 -2.40603,7.01512 -0.47063,8.80626 1.04101,0.96342 2.50003,0.97783 3.69187,-0.39207 0.5659,-0.65042 2.33165,-4.75246 4.48539,-6.70689 0.32272,-0.29284 0.55829,-0.37178 0.55339,-0.64828 z"
       id="path35"
       sodipodi:nodetypes="sssssss" /></g></svg>
